<?xml version="1.0" encoding="utf-8"?>
<!-- Generator: Adobe Illustrator 19.1.0, SVG Export Plug-In . SVG Version: 6.00 Build 0)  -->
<svg version="1.1" id="Vrstva_1" xmlns="http://www.w3.org/2000/svg" xmlns:xlink="http://www.w3.org/1999/xlink" x="0px" y="0px"
	 viewBox="-292 204.5 5 7" style="enable-background:new -292 204.5 5 7;" xml:space="preserve">
<style type="text/css">
	.st0{fill:#FFFFFF;}
</style>
<path class="st0" d="M-288.5,207l-1.8-2.3c-0.2-0.2-0.5-0.2-0.7,0c-0.2-0.2-0.5-0.2-0.7,0c-0.2,0.2-0.2,0.6,0,0.8l1.5,1.9l-1.5,1.9
	c-0.2,0.2-0.2,0.6,0,0.8c0.2,0.2,0.5,0.2,0.7,0c0.2,0.2,0.5,0.2,0.7,0l1.8-2.3c0,0,0,0,0,0c0,0,0,0,0,0
	C-288.3,207.6-288.3,207.2-288.5,207z"/>
</svg>
