<?xml version="1.0" encoding="utf-8"?>
<!-- Generator: Adobe Illustrator 19.1.0, SVG Export Plug-In . SVG Version: 6.00 Build 0)  -->
<svg version="1.1" id="Vrstva_1" xmlns="http://www.w3.org/2000/svg" xmlns:xlink="http://www.w3.org/1999/xlink" x="0px" y="0px"
	 viewBox="-41 464.5 16 18" enable-background="new -41 464.5 16 18" xml:space="preserve">
<path id="facebook-square-rounded-icon" fill="#3B5998" d="M-27,465.5h-12c-1.1,0-2,0.9-2,1.9v12.1c0,1.1,0.9,1.9,1.9,1.9h12.1
	c1.1,0,1.9-0.9,1.9-1.9v-12.1C-25,466.4-25.9,465.5-27,465.5z M-30.4,469.8c0,0-0.9,0-1.2,0c-0.4,0-0.5,0.2-0.5,0.6
	c0,0.4,0,1.1,0,1.1h1.8l-0.2,1.9h-1.6v5.7h-2.3v-5.7h-1.2v-1.9h1.2c0,0,0-0.3,0-1.5c0-1.4,0.8-2.2,2.5-2.2c0.3,0,1.6,0,1.6,0V469.8z
	"/>
</svg>
