<?xml version="1.0" encoding="utf-8"?>
<!-- Generator: Adobe Illustrator 19.1.0, SVG Export Plug-In . SVG Version: 6.00 Build 0)  -->
<svg version="1.1"
	 id="svg2985" xmlns:cc="http://creativecommons.org/ns#" xmlns:inkscape="http://www.inkscape.org/namespaces/inkscape" xmlns:rdf="http://www.w3.org/1999/02/22-rdf-syntax-ns#" xmlns:svg="http://www.w3.org/2000/svg" xmlns:sodipodi="http://sodipodi.sourceforge.net/DTD/sodipodi-0.dtd" xmlns:dc="http://purl.org/dc/elements/1.1/" sodipodi:docname="logo-horiz-gray-cmyk-30mm.ai" inkscape:version="0.48.0 r9654"
	 xmlns="http://www.w3.org/2000/svg" xmlns:xlink="http://www.w3.org/1999/xlink" x="0px" y="0px" viewBox="-153 263.5 143 53.3"
	 enable-background="new -153 263.5 143 53.3" xml:space="preserve">
<g id="g2993" transform="matrix(1.25,0,0,-1.25,0,106.3)" inkscape:label="logo-horiz-gray-cmyk-30mm" inkscape:groupmode="layer">
	<g id="g2995">
		<g>
			<defs>
				<rect id="SVGID_1_" x="-136.7" y="-173.5" width="143" height="53"/>
			</defs>
			<clipPath id="SVGID_2_">
				<use xlink:href="#SVGID_1_"  overflow="visible"/>
			</clipPath>
			<g id="g2997" clip-path="url(#SVGID_2_)">
				<g id="g3003" transform="translate(49.1304,35.6455)">
					<path id="path3005" fill="#F6A602" d="M-147.1-186c-2.8-2.8-7.5-2.8-10.3,0c-2.8,2.8-2.8,7.5,0,10.3c2.8,2.8,7.5,2.8,10.3,0
						C-144.2-178.6-144.2-183.2-147.1-186 M-131.4-190.9c-1.2,1.2-2.8,1.9-4.4,2.2c-1.3,0.2-2.6,0.8-3.6,1.8c-1.4,1.4-2,3.3-1.9,5.1
						c0.1,1.4,0.1,2.9,0,4.2c-0.1,1.5,0.5,3,1.7,4c0.7,0.6,1.5,0.9,2.3,1.1c1.2,0.1,2.5,0.7,3.4,1.6c2.2,2.2,2.2,5.8,0,8
						c-2.2,2.2-5.8,2.2-8,0c-0.9-0.9-1.5-2.1-1.6-3.3c-0.1-1-0.6-1.9-1.4-2.7c-1-1-2.5-1.6-3.8-1.4c-2.5,0.3-2.9,0.3-5.6,0.1
						c-1.5-0.1-2,0.4-2.3,1.1c-0.2,0.4-0.2,0.8-0.2,1.2c0.1,0.6,0,1.2-0.3,1.8c-0.7,1.3-2.4,1.7-3.7,1c-1.3-0.7-1.7-2.4-1-3.7
						c0.3-0.5,0.8-0.9,1.3-1.1c0.4-0.2,0.8-0.5,1.1-1c0.3-0.6,0.7-1.3-0.3-2.3c-2.3-2.5-3.5-5.7-3.1-8.9c0.1-1.5-1-2-2-2.4
						c-0.6-0.2-1.2-0.3-1.8-0.2c-0.9,0.2-1.8,0.1-2.7-0.3c-2-1-2.8-3.3-1.9-5.3c1-2,3.4-2.8,5.4-1.9c0.8,0.4,1.5,1,1.9,1.8
						c0.3,0.6,0.9,1.1,1.5,1.5c0.9,0.4,2.5,0.5,3.3-0.1c2.3-1.9,5.2-2.8,8-2.5c2,0.2,4-0.7,5.4-2.3c0.8-0.9,1.2-1.9,1.4-3
						c0.2-1.7,0.9-3.3,2.2-4.6c3-2.9,7.8-2.9,10.7,0C-128.4-198.6-128.4-193.9-131.4-190.9"/>
				</g>
				<g id="g3007" transform="translate(93.9751,57.0635)">
					<path id="path3009" fill="#505C66" d="M-169.6-196.8h-7.5c-0.9,0-1.7-0.3-2.3-1c-0.6-0.6-1-1.4-1-2.3v-4.4c0-0.9,0.3-1.7,1-2.3
						c0.6-0.6,1.4-1,2.3-1h6.1v1.6h-4.6c-0.4,0-0.8,0.1-1.1,0.4c-0.3,0.3-0.4,0.6-0.4,1v5.1c0,0.4,0.1,0.7,0.4,1
						c0.3,0.3,0.6,0.4,1,0.4h4.7c0.4,0,0.7-0.1,1-0.4c0.3-0.3,0.4-0.6,0.4-1v-8.1h3.3v3.5v4.3c0,0.9-0.3,1.7-1,2.3
						C-167.9-197.1-168.6-196.8-169.6-196.8"/>
				</g>
				<g id="g3011" transform="translate(158.0068,57.0635)">
					<path id="path3013" fill="#505C66" d="M-201.7-196.8h-7.5c-0.9,0-1.7-0.3-2.3-1c-0.6-0.6-1-1.4-1-2.3v-4.4c0-0.9,0.3-1.7,1-2.3
						c0.6-0.6,1.4-1,2.3-1h6.1v1.6h-4.7c-0.4,0-0.7,0.1-1,0.4c-0.3,0.3-0.4,0.6-0.4,1v5.1c0,0.4,0.1,0.7,0.4,1
						c0.3,0.3,0.6,0.4,1,0.4h4.7c0.4,0,0.7-0.1,1-0.4c0.3-0.3,0.4-0.6,0.4-1v-8.1h3.3v3.5v4.3c0,0.9-0.3,1.7-1,2.3
						C-200-197.1-200.8-196.8-201.7-196.8"/>
				</g>
				<g id="g3015" transform="translate(218.5723,41.4307)">
					<path id="path3017" fill="#505C66" d="M-232.1-188.9h-1c-0.3,0-0.6-0.1-0.8-0.3c-0.2-0.2-0.3-0.5-0.3-0.8v-1
						c0-0.3,0.1-0.6,0.3-0.8c0.2-0.2,0.5-0.3,0.8-0.3h1c0.3,0,0.6,0.1,0.8,0.3c0.2,0.2,0.3,0.5,0.3,0.8v1c0,0.3-0.1,0.6-0.3,0.8
						C-231.5-189.1-231.8-188.9-232.1-188.9"/>
				</g>
				<g id="g3019" transform="translate(218.5723,64.4443)">
					<path id="path3021" fill="#505C66" d="M-232.1-200.5h-1c-0.3,0-0.6-0.1-0.8-0.3c-0.2-0.2-0.3-0.5-0.3-0.8v-8.2
						c0-0.3,0.1-0.6,0.3-0.8c0.2-0.2,0.5-0.3,0.8-0.3h1c0.3,0,0.6,0.1,0.8,0.3c0.2,0.2,0.3,0.5,0.3,0.8v8.2c0,0.3-0.1,0.6-0.3,0.8
						C-231.5-200.6-231.8-200.5-232.1-200.5"/>
				</g>
				<g id="g3023" transform="translate(129.9473,57.0635)">
					<path id="path3025" fill="#505C66" d="M-187.6-196.8l-5.1-7.2l-0.8-1.2c-0.6-1-1.3-1.5-2-1.5c-0.4,0-0.7,0.1-1,0.4
						c-0.3,0.3-0.4,0.6-0.4,1v5.2h0v2.2c0,0.3-0.1,0.6-0.3,0.8c-0.2,0.2-0.5,0.3-0.8,0.3h-1c-0.3,0-0.6-0.1-0.8-0.3
						c-0.2-0.2-0.3-0.5-0.3-0.8v-4.4v0v-2.2c0-0.9,0.3-1.7,1-2.3c0.6-0.6,1.4-1,2.3-1h1.7c1.2,0,2,0.1,2.5,0.2
						c0.9,0.3,1.7,1.1,2.5,2.3l5.9,8.5H-187.6z"/>
				</g>
				<g id="g3027" transform="translate(208.293,38.0361)">
					<path id="path3029" fill="#505C66" d="M-226.9-187.2c-0.4,0-0.7,0.1-1,0.4c-0.3,0.3-0.4,0.6-0.4,1l0,5.1c0,0.4,0.1,0.7,0.4,1
						c0.3,0.3,0.6,0.4,1,0.4h1.4v1.5h-2.8c-1.3,0-2.2-0.8-2.6-1.2c0,0.1,0.1,0.2,0.2,0.3c0,0,0.9,1.5,2.5,1.7v1h0v0.8
						c0,0.3-0.1,0.6-0.3,0.8c-0.2,0.2-0.5,0.3-0.8,0.3h-1c-0.3,0-0.6-0.1-0.8-0.3c-0.2-0.2-0.3-0.5-0.3-0.8v-10.5h0
						c0.1-0.8,0.4-1.5,1-2.1c0.6-0.6,1.4-1,2.3-1h3.1v1.5H-226.9z"/>
				</g>
				<g id="g3031" transform="translate(174.5576,57.022)">
					<path id="path3033" fill="#505C66" d="M-210-196.8c-0.9,0-1.7-0.3-2.3-0.9c-0.6-0.6-0.9-1.3-0.9-2.2c0-0.9,0.3-1.9,0.9-2.4
						c0.6-0.6,1.4-0.9,2.3-0.9h5.8c0.4,0,0.7-0.1,1-0.4c0.3-0.3,0.4-0.6,0.4-1v-0.3c0-0.4-0.1-0.7-0.4-1c-0.3-0.3-0.6-0.4-1-0.4
						h-4.4c-0.4,0-0.7,0.1-1,0.4c-0.3,0.3-0.4,0.6-0.4,1v0.3h-3.3c0-0.9,0.3-1.7,1-2.3c0.6-0.6,1.4-1,2.3-1h7.2
						c0.9,0,1.7,0.3,2.3,0.9c0.6,0.6,0.9,1.3,0.9,2.2c0,0.9-0.3,1.7-0.9,2.3c-0.6,0.6-1.4,0.8-2.4,0.8h-5.8c-0.4,0-0.7,0.1-1,0.4
						c-0.3,0.3-0.4,0.6-0.4,1v0.5c0,0.4,0.1,0.7,0.4,1c0.3,0.3,0.6,0.4,1,0.4l4.4,0c0.4,0,0.7-0.1,1-0.4c0.3-0.3,0.4-0.6,0.4-1v-0.3
						h3.3c0,0.9-0.3,1.7-1,2.3c-0.6,0.6-1.4,1-2.3,1L-210-196.8z"/>
				</g>
				<g id="g3035" transform="translate(225.8809,65.5137)">
					<path id="path3037" fill="#505C66" d="M-235.7-201h-0.2v0.5c0,0,0.1,0,0.2,0c0.3,0,0.4-0.1,0.4-0.3
						C-235.3-201-235.5-201-235.7-201 M-235.3-201.2L-235.3-201.2c0.2,0.1,0.4,0.2,0.4,0.4c0,0.2-0.1,0.3-0.2,0.4
						c-0.1,0.1-0.3,0.1-0.6,0.1c-0.3,0-0.5,0-0.7-0.1v-1.8h0.4v0.7h0.2c0.2,0,0.3-0.1,0.4-0.3c0.1-0.2,0.1-0.4,0.1-0.4h0.4
						c0,0.1-0.1,0.2-0.1,0.4C-235-201.3-235.1-201.2-235.3-201.2"/>
				</g>
				<g id="g3039" transform="translate(226.0488,62.5547)">
					<path id="path3041" fill="#505C66" d="M-235.8-199.5c-0.8,0-1.3,0.6-1.3,1.4c0,0.8,0.6,1.4,1.3,1.4h0c0.8,0,1.3-0.6,1.3-1.4
						C-234.5-198.9-235.1-199.6-235.8-199.5 M-235.8-196.4L-235.8-196.4c-1,0-1.8-0.8-1.8-1.8c0-1,0.8-1.8,1.8-1.8
						c1,0,1.8,0.8,1.8,1.8C-234-197.1-234.8-196.4-235.8-196.4"/>
				</g>
				<g id="g3043" transform="translate(38.7764,55.0884)">
					<path id="path3045" fill="#505C66" d="M-141.9-195.8c-2.5,0-4.5-2-4.5-4.5c0-1.8,1-3.3,2.5-4c0.3-0.2,0.7-0.3,1.1-0.3
						c1.2,0,2.2,0.9,2.3,2.1c-0.1,0-1.3,0-1.3,0c-1.3,0-2.3,1-2.3,2.3c0,1.3,1,2.3,2.3,2.3c1.3,0,2.3-1,2.3-2.3v-1.6v-2.3
						c1.3,0,2.3,1,2.3,2.3v1.6C-137.3-197.8-139.3-195.8-141.9-195.8"/>
				</g>
				<g id="g3047" transform="translate(157.5742,11.4658)">
					<path id="path3049" fill="#505C66" d="M-201.5-173.9c0.1-0.2,0.3-0.3,0.4-0.3c0.3,0,0.6,0.1,1,0.4c0.4,0.3,0.7,0.7,0.9,1.2
						c0.3,0.5,0.4,0.9,0.4,1.2c0,0.3,0,0.5-0.1,0.5c-0.5,0-1.1-0.4-1.7-1.1C-201.1-172.8-201.5-173.4-201.5-173.9 M-202-170.5
						c0.3,1.8,0.5,2.9,0.7,3.2c0.1,0.3,0.4,0.5,0.7,0.5c0.3,0,0.4-0.2,0.4-0.7c0-0.3-0.1-1-0.4-2c-0.1-0.5-0.3-1.2-0.5-2.2
						c0.4,0.5,0.8,0.9,1.3,1.3c0.5,0.3,0.9,0.5,1.2,0.5c0.3,0,0.5-0.1,0.7-0.4c0.2-0.3,0.3-0.6,0.3-0.9c0-1-0.4-1.9-1.1-2.8
						c-0.8-0.9-1.6-1.3-2.4-1.3c-0.3,0-0.5,0.1-0.7,0.2c-0.2,0.1-0.3,0.3-0.4,0.5c0,0.1,0,0.2-0.1,0.2c0,0-0.1,0.1-0.1,0.1
						c-0.1,0.1-0.1,0.2-0.1,0.4c0,0.2,0,0.6,0.1,1.2C-202.3-172.5-202-170.5-202-170.5z"/>
				</g>
				<g id="g3051" transform="translate(169.0029,13.9541)">
					<path id="path3053" fill="#505C66" d="M-207.2-175.2c0.5,0.1,0.9,0.3,1.3,0.6c0.4,0.3,0.6,0.6,0.6,0.9c0,0.1,0,0.2-0.1,0.3
						c-0.1,0.1-0.1,0.1-0.2,0.1c-0.3,0-0.6-0.2-0.9-0.6C-206.9-174.3-207.1-174.7-207.2-175.2 M-204-176c0-0.3-0.3-0.7-0.8-1.2
						c-0.6-0.5-1.2-0.7-1.9-0.7c-0.5,0-1,0.2-1.3,0.5c-0.3,0.3-0.5,0.8-0.5,1.4c0,0.9,0.3,1.7,0.9,2.5c0.6,0.8,1.3,1.2,2,1.2
						c0.4,0,0.6-0.1,0.9-0.3c0.2-0.2,0.3-0.5,0.3-0.8c0-0.6-0.3-1.1-0.8-1.6c-0.5-0.5-1.2-0.8-2-1c-0.1,0-0.1-0.1-0.1-0.2
						c0-0.2,0.1-0.3,0.2-0.4c0.1-0.1,0.3-0.2,0.5-0.2c0.6,0,1.3,0.3,1.9,1c0.1,0.1,0.2,0.2,0.4,0.2C-204.1-175.7-204-175.8-204-176"
						/>
				</g>
				<g id="g3055" transform="translate(187.4746,13.8389)">
					<path id="path3057" fill="#505C66" d="M-216.5-175.1l-0.1-0.9c0-0.3,0-0.5,0-0.8c0-0.2,0-0.5,0.1-0.8c0-0.1-0.1-0.2-0.2-0.3
						c-0.1-0.1-0.3-0.1-0.4-0.1c-0.4,0-0.7,0.3-0.7,0.8c0,0.2,0.1,0.8,0.2,1.8c0.1,0.7,0.1,1.2,0.1,1.5c0,0,0,0-0.1,0.1
						c-0.2,0.1-0.3,0.3-0.3,0.4c0,0.2,0.1,0.3,0.4,0.5c0.1,0.1,0.2,0.2,0.2,0.3c0,0.1,0.1,0.3,0.1,0.6c0.2,1,0.4,1.7,0.8,2.2
						c0.4,0.4,0.8,0.6,1.4,0.6c0.3,0,0.6-0.1,0.8-0.3c0.2-0.2,0.3-0.5,0.3-0.8c0-0.3-0.1-0.6-0.2-0.9c-0.1-0.3-0.3-0.5-0.5-0.5
						c-0.1,0-0.2,0-0.2,0.1c-0.1,0.1-0.1,0.1-0.1,0.2l0,0.4c0,0.5-0.1,0.7-0.3,0.7c-0.3,0-0.5-0.3-0.7-1c-0.2-0.6-0.3-1.2-0.3-1.7
						c0,0,0-0.1,0.1-0.1c0.7,0,1.1,0,1.4,0c0.3,0,0.4-0.1,0.4-0.3c0-0.2-0.2-0.4-0.5-0.5c-0.3-0.1-0.7-0.2-1-0.2
						c-0.2,0-0.4,0-0.5-0.1C-216.4-174.3-216.4-174.7-216.5-175.1L-216.5-175.1z"/>
				</g>
				<g id="g3059" transform="translate(194.5098,13.7139)">
					<path id="path3061" fill="#505C66" d="M-220-175l0.1,0.2c0.4,0.8,0.8,1.4,1.2,1.9c0.4,0.5,0.9,0.7,1.3,0.7
						c0.3,0,0.6-0.1,0.8-0.3c0.2-0.2,0.3-0.4,0.3-0.6c0-0.2,0-0.3-0.1-0.4c-0.1-0.1-0.2-0.2-0.3-0.2c-0.2,0-0.4,0.1-0.5,0.2
						c-0.1,0.1-0.2,0.2-0.3,0.2c-0.2,0-0.6-0.4-1.2-1.1c-0.6-0.7-0.9-1.6-1-2.5c0-0.3-0.1-0.5-0.2-0.6c-0.1-0.1-0.3-0.2-0.5-0.2
						c-0.2,0-0.4,0.1-0.5,0.4c-0.1,0.2-0.1,0.7-0.1,1.2c0,0.2,0,0.5,0,0.9c0,0.4,0,0.8,0.1,1.4c0,0.1,0,0.2,0,0.3
						c0,0.3,0.1,0.5,0.1,0.6c0,0.1,0.1,0.2,0.3,0.3c0.1,0.1,0.3,0.2,0.4,0.2c0.2,0,0.3,0,0.4-0.1c0.1-0.1,0.1-0.2,0.1-0.3
						c0-0.1-0.1-0.5-0.2-0.9c-0.1-0.2-0.1-0.4-0.1-0.6L-220-175z"/>
				</g>
				<g id="g3063" transform="translate(204.3018,13.9541)">
					<path id="path3065" fill="#505C66" d="M-224.9-175.2c0.5,0.1,0.9,0.3,1.3,0.6c0.4,0.3,0.6,0.6,0.6,0.9c0,0.1,0,0.2-0.1,0.3
						c-0.1,0.1-0.1,0.1-0.2,0.1c-0.3,0-0.6-0.2-0.9-0.6C-224.6-174.3-224.8-174.7-224.9-175.2 M-221.7-176c0-0.3-0.3-0.7-0.8-1.2
						c-0.6-0.5-1.2-0.7-1.9-0.7c-0.5,0-1,0.2-1.3,0.5c-0.3,0.3-0.5,0.8-0.5,1.4c0,0.9,0.3,1.7,0.9,2.5c0.6,0.8,1.3,1.2,2,1.2
						c0.4,0,0.6-0.1,0.9-0.3c0.2-0.2,0.3-0.5,0.3-0.8c0-0.6-0.3-1.1-0.8-1.6c-0.5-0.5-1.2-0.8-2-1c-0.1,0-0.1-0.1-0.1-0.2
						c0-0.2,0.1-0.3,0.2-0.4c0.1-0.1,0.3-0.2,0.5-0.2c0.6,0,1.3,0.3,1.9,1c0.1,0.1,0.2,0.2,0.4,0.2
						C-221.8-175.7-221.7-175.8-221.7-176"/>
				</g>
				<g id="g3067" transform="translate(214.457,13.9541)">
					<path id="path3069" fill="#505C66" d="M-230-175.2c0.5,0.1,0.9,0.3,1.3,0.6c0.4,0.3,0.6,0.6,0.6,0.9c0,0.1,0,0.2-0.1,0.3
						c-0.1,0.1-0.1,0.1-0.2,0.1c-0.3,0-0.6-0.2-0.9-0.6C-229.7-174.3-229.9-174.7-230-175.2 M-226.8-176c0-0.3-0.3-0.7-0.8-1.2
						c-0.6-0.5-1.2-0.7-1.9-0.7c-0.5,0-1,0.2-1.3,0.5c-0.3,0.3-0.5,0.8-0.5,1.4c0,0.9,0.3,1.7,0.9,2.5c0.6,0.8,1.3,1.2,2,1.2
						c0.4,0,0.6-0.1,0.9-0.3c0.2-0.2,0.3-0.5,0.3-0.8c0-0.6-0.3-1.1-0.8-1.6c-0.5-0.5-1.2-0.8-2-1c-0.1,0-0.1-0.1-0.1-0.2
						c0-0.2,0.1-0.3,0.2-0.4c0.1-0.1,0.3-0.2,0.5-0.2c0.6,0,1.3,0.3,1.9,1c0.1,0.1,0.2,0.2,0.4,0.2
						C-226.9-175.7-226.8-175.8-226.8-176"/>
				</g>
			</g>
		</g>
	</g>
</g>
</svg>
