<?xml version="1.0" encoding="utf-8"?><!DOCTYPE svg PUBLIC "-//W3C//DTD SVG 1.1//EN" "http://www.w3.org/Graphics/SVG/1.1/DTD/svg11.dtd"><svg width="145" height="144" viewBox="0 0 145 144" xmlns="http://www.w3.org/2000/svg" xmlns:xlink="http://www.w3.org/1999/xlink"><svg width="26" height="14.25" viewBox="-1 4.87 26 14.25" id="arrow-top" x="92" y="55.3"><path fill="#FFF" d="M.293 18.126l-.28-.28L11.987 5.875l.028.028.028-.028 11.972 11.973-.28.28-11.72-11.75z"/></svg><svg id="ico-arrow-right" viewBox="-293 203.5 7 9" width="7" height="9" x="118" y="55.3"><style>.bst0{fill:#FFF}</style><path class="bst0" d="M-288.5 207l-1.8-2.3c-.2-.2-.5-.2-.7 0-.2-.2-.5-.2-.7 0-.2.2-.2.6 0 .8l1.5 1.9-1.5 1.9c-.2.2-.2.6 0 .8.2.2.5.2.7 0 .2.2.5.2.7 0l1.8-2.3c.2-.2.2-.6 0-.8z"/></svg><svg viewBox="-42 463.5 18 20" width="18" height="20" id="ico-facebook" x="92" y="69.55"><path fill="#3B5998" d="M-27 465.5h-12c-1.1 0-2 .9-2 1.9v12.1c0 1.1.9 1.9 1.9 1.9H-27c1.1 0 1.9-.9 1.9-1.9v-12.1c.1-1-.8-1.9-1.9-1.9zm-3.4 4.3h-1.2c-.4 0-.5.2-.5.6v1.1h1.8l-.2 1.9h-1.6v5.7h-2.3v-5.7h-1.2v-1.9h1.2V470c0-1.4.8-2.2 2.5-2.2h1.6v2z"/></svg><svg viewBox="-290 217.5 15 16" width="15" height="16" id="ico-user" x="110" y="69.55"><path fill="#667282" d="M-278.5 223.1c0 2-1.6 3.5-3.5 3.5s-3.5-1.6-3.5-3.5 1.6-3.5 3.5-3.5 3.5 1.7 3.5 3.5zm-.6 3.7c-.8.7-1.8 1-2.8 1-1.1 0-2.1-.4-2.9-1-2.2.8-3.1 3.5-3.1 4.8h12c-.1-1.2-1.1-4-3.2-4.8z"/></svg><svg viewBox="-154 262.5 145 55.3" width="145" height="55.3" id="logo"><g transform="matrix(1.25 0 0 -1.25 0 106.3)"><defs><path id="ea" d="M-136.7-173.5h143v53h-143z"/></defs><clipPath id="eb"><use xlink:href="#ea" overflow="visible"/></clipPath><g clip-path="url(#eb)"><path fill="#F6A602" d="M-97.97-150.355c-2.8-2.8-7.5-2.8-10.3 0-2.8 2.8-2.8 7.5 0 10.3 2.8 2.8 7.5 2.8 10.3 0 2.9-2.9 2.9-7.5 0-10.3m15.7-4.9c-1.2 1.2-2.8 1.9-4.4 2.2-1.3.2-2.6.8-3.6 1.8-1.4 1.4-2 3.3-1.9 5.1.1 1.4.1 2.9 0 4.2-.1 1.5.5 3 1.7 4 .7.6 1.5.9 2.3 1.1 1.2.1 2.5.7 3.4 1.6 2.2 2.2 2.2 5.8 0 8s-5.8 2.2-8 0c-.9-.9-1.5-2.1-1.6-3.3-.1-1-.6-1.9-1.4-2.7-1-1-2.5-1.6-3.8-1.4-2.5.3-2.9.3-5.6.1-1.5-.1-2 .4-2.3 1.1-.2.4-.2.8-.2 1.2.1.6 0 1.2-.3 1.8-.7 1.3-2.4 1.7-3.7 1-1.3-.7-1.7-2.4-1-3.7.3-.5.8-.9 1.3-1.1.4-.2.8-.5 1.1-1 .3-.6.7-1.3-.3-2.3-2.3-2.5-3.5-5.7-3.1-8.9.1-1.5-1-2-2-2.4-.6-.2-1.2-.3-1.8-.2-.9.2-1.8.1-2.7-.3-2-1-2.8-3.3-1.9-5.3 1-2 3.4-2.8 5.4-1.9.8.4 1.5 1 1.9 1.8.3.6.9 1.1 1.5 1.5.9.4 2.5.5 3.3-.1 2.3-1.9 5.2-2.8 8-2.5 2 .2 4-.7 5.4-2.3.8-.9 1.2-1.9 1.4-3 .2-1.7.9-3.3 2.2-4.6 3-2.9 7.8-2.9 10.7 0 3 2.8 3 7.5 0 10.5"/><path fill="#505C66" d="M-75.625-139.737h-7.5c-.9 0-1.7-.3-2.3-1-.6-.6-1-1.4-1-2.3v-4.4c0-.9.3-1.7 1-2.3.6-.6 1.4-1 2.3-1h6.1v1.6h-4.6c-.4 0-.8.1-1.1.4-.3.3-.4.6-.4 1v5.1c0 .4.1.7.4 1 .3.3.6.4 1 .4h4.7c.4 0 .7-.1 1-.4.3-.3.4-.6.4-1v-8.1h3.3v7.8c0 .9-.3 1.7-1 2.3-.6.6-1.3.9-2.3.9M-43.693-139.737h-7.5c-.9 0-1.7-.3-2.3-1-.6-.6-1-1.4-1-2.3v-4.4c0-.9.3-1.7 1-2.3.6-.6 1.4-1 2.3-1h6.1v1.6h-4.7c-.4 0-.7.1-1 .4-.3.3-.4.6-.4 1v5.1c0 .4.1.7.4 1 .3.3.6.4 1 .4h4.7c.4 0 .7-.1 1-.4.3-.3.4-.6.4-1v-8.1h3.3v7.8c0 .9-.3 1.7-1 2.3-.6.6-1.4.9-2.3.9M-13.528-147.47h-1c-.3 0-.6-.1-.8-.3-.2-.2-.3-.5-.3-.8v-1c0-.3.1-.6.3-.8.2-.2.5-.3.8-.3h1c.3 0 .6.1.8.3.2.2.3.5.3.8v1c0 .3-.1.6-.3.8-.2.1-.5.3-.8.3M-13.528-136.056h-1c-.3 0-.6-.1-.8-.3-.2-.2-.3-.5-.3-.8v-8.2c0-.3.1-.6.3-.8.2-.2.5-.3.8-.3h1c.3 0 .6.1.8.3.2.2.3.5.3.8v8.2c0 .3-.1.6-.3.8-.2.2-.5.3-.8.3M-57.653-139.737l-5.1-7.2-.8-1.2c-.6-1-1.3-1.5-2-1.5-.4 0-.7.1-1 .4-.3.3-.4.6-.4 1v7.4c0 .3-.1.6-.3.8-.2.2-.5.3-.8.3h-1c-.3 0-.6-.1-.8-.3-.2-.2-.3-.5-.3-.8V-147.436c0-.9.3-1.7 1-2.3.6-.6 1.4-1 2.3-1h1.7c1.2 0 2 .1 2.5.2.9.3 1.7 1.1 2.5 2.3l5.9 8.5h-3.4zM-18.607-149.164c-.4 0-.7.1-1 .4-.3.3-.4.6-.4 1v5.1c0 .4.1.7.4 1 .3.3.6.4 1 .4h1.4v1.5h-2.8c-1.3 0-2.2-.8-2.6-1.2 0 .1.1.2.2.3 0 0 .9 1.5 2.5 1.7v1.8c0 .3-.1.6-.3.8-.2.2-.5.3-.8.3h-1c-.3 0-.6-.1-.8-.3-.2-.2-.3-.5-.3-.8v-10.5c.1-.8.4-1.5 1-2.1.6-.6 1.4-1 2.3-1h3.1v1.5h-1.9zM-35.442-139.778c-.9 0-1.7-.3-2.3-.9-.6-.6-.9-1.3-.9-2.2 0-.9.3-1.9.9-2.4.6-.6 1.4-.9 2.3-.9h5.8c.4 0 .7-.1 1-.4.3-.3.4-.6.4-1v-.3c0-.4-.1-.7-.4-1-.3-.3-.6-.4-1-.4h-4.4c-.4 0-.7.1-1 .4-.3.3-.4.6-.4 1v.3h-3.3c0-.9.3-1.7 1-2.3.6-.6 1.4-1 2.3-1h7.2c.9 0 1.7.3 2.3.9.6.6.9 1.3.9 2.2 0 .9-.3 1.7-.9 2.3-.6.6-1.4.8-2.4.8h-5.8c-.4 0-.7.1-1 .4-.3.3-.4.6-.4 1v.5c0 .4.1.7.4 1 .3.3.6.4 1 .4h4.4c.4 0 .7-.1 1-.4.3-.3.4-.6.4-1v-.3h3.3c0 .9-.3 1.7-1 2.3-.6.6-1.4 1-2.3 1h-7.1zM-9.82-135.486h-.2v.5h.2c.3 0 .4-.1.4-.3 0-.2-.2-.2-.4-.2m.4-.2c.2.1.4.2.4.4s-.1.3-.2.4c-.1.1-.3.1-.6.1s-.5 0-.7-.1v-1.8h.4v.7h.2c.2 0 .3-.1.4-.3.1-.2.1-.4.1-.4h.4c0 .1-.1.2-.1.4 0 .5-.1.6-.3.6"/><path fill="#505C66" d="M-9.75-136.945c-.8 0-1.3.6-1.3 1.4 0 .8.6 1.4 1.3 1.4.8 0 1.3-.6 1.3-1.4 0-.8-.6-1.5-1.3-1.4m0 3.1c-1 0-1.8-.8-1.8-1.8s.8-1.8 1.8-1.8 1.8.8 1.8 1.8c0 1.1-.8 1.8-1.8 1.8M-103.124-140.712c-2.5 0-4.5-2-4.5-4.5 0-1.8 1-3.3 2.5-4 .3-.2.7-.3 1.1-.3 1.2 0 2.2.9 2.3 2.1h-1.3c-1.3 0-2.3 1-2.3 2.3 0 1.3 1 2.3 2.3 2.3 1.3 0 2.3-1 2.3-2.3v-3.9c1.3 0 2.3 1 2.3 2.3v1.6c-.1 2.4-2.1 4.4-4.7 4.4M-43.926-162.434c.1-.2.3-.3.4-.3.3 0 .6.1 1 .4.4.3.7.7.9 1.2.3.5.4.9.4 1.2 0 .3 0 .5-.1.5-.5 0-1.1-.4-1.7-1.1-.5-.8-.9-1.4-.9-1.9m-.5 3.4c.3 1.8.5 2.9.7 3.2.1.3.4.5.7.5.3 0 .4-.2.4-.7 0-.3-.1-1-.4-2-.1-.5-.3-1.2-.5-2.2.4.5.8.9 1.3 1.3.5.3.9.5 1.2.5.3 0 .5-.1.7-.4.2-.3.3-.6.3-.9 0-1-.4-1.9-1.1-2.8-.8-.9-1.6-1.3-2.4-1.3-.3 0-.5.1-.7.2-.2.1-.3.3-.4.5 0 .1 0 .2-.1.2l-.1.1c-.1.1-.1.2-.1.4s0 .6.1 1.2c.1.2.4 2.2.4 2.2zM-38.197-161.246c.5.1.9.3 1.3.6s.6.6.6.9c0 .1 0 .2-.1.3-.1.1-.1.1-.2.1-.3 0-.6-.2-.9-.6-.4-.4-.6-.8-.7-1.3m3.2-.8c0-.3-.3-.7-.8-1.2-.6-.5-1.2-.7-1.9-.7-.5 0-1 .2-1.3.5-.3.3-.5.8-.5 1.4 0 .9.3 1.7.9 2.5.6.8 1.3 1.2 2 1.2.4 0 .6-.1.9-.3.2-.2.3-.5.3-.8 0-.6-.3-1.1-.8-1.6s-1.2-.8-2-1c-.1 0-.1-.1-.1-.2 0-.2.1-.3.2-.4.1-.1.3-.2.5-.2.6 0 1.3.3 1.9 1 .1.1.2.2.4.2.2-.1.3-.2.3-.4M-29.025-161.26l-.1-.9v-.8c0-.2 0-.5.1-.8 0-.1-.1-.2-.2-.3-.1-.1-.3-.1-.4-.1-.4 0-.7.3-.7.8 0 .2.1.8.2 1.8.1.7.1 1.2.1 1.5l-.1.1c-.2.1-.3.3-.3.4 0 .2.1.3.4.5.1.1.2.2.2.3 0 .1.1.3.1.6.2 1 .4 1.7.8 2.2.4.4.8.6 1.4.6.3 0 .6-.1.8-.3.2-.2.3-.5.3-.8 0-.3-.1-.6-.2-.9-.1-.3-.3-.5-.5-.5-.1 0-.2 0-.2.1-.1.1-.1.1-.1.2v.4c0 .5-.1.7-.3.7-.3 0-.5-.3-.7-1-.2-.6-.3-1.2-.3-1.7 0 0 0-.1.1-.1h1.4c.3 0 .4-.1.4-.3 0-.2-.2-.4-.5-.5-.3-.1-.7-.2-1-.2-.2 0-.4 0-.5-.1-.1-.1-.1-.5-.2-.9zM-25.49-161.286l.1.2c.4.8.8 1.4 1.2 1.9.4.5.9.7 1.3.7.3 0 .6-.1.8-.3.2-.2.3-.4.3-.6 0-.2 0-.3-.1-.4-.1-.1-.2-.2-.3-.2-.2 0-.4.1-.5.2-.1.1-.2.2-.3.2-.2 0-.6-.4-1.2-1.1-.6-.7-.9-1.6-1-2.5 0-.3-.1-.5-.2-.6-.1-.1-.3-.2-.5-.2s-.4.1-.5.4c-.1.2-.1.7-.1 1.2v.9c0 .4 0 .8.1 1.4v.3c0 .3.1.5.1.6 0 .1.1.2.3.3.1.1.3.2.4.2.2 0 .3 0 .4-.1.1-.1.1-.2.1-.3 0-.1-.1-.5-.2-.9-.1-.2-.1-.4-.1-.6l-.1-.7zM-20.598-161.246c.5.1.9.3 1.3.6s.6.6.6.9c0 .1 0 .2-.1.3-.1.1-.1.1-.2.1-.3 0-.6-.2-.9-.6-.4-.4-.6-.8-.7-1.3m3.2-.8c0-.3-.3-.7-.8-1.2-.6-.5-1.2-.7-1.9-.7-.5 0-1 .2-1.3.5-.3.3-.5.8-.5 1.4 0 .9.3 1.7.9 2.5.6.8 1.3 1.2 2 1.2.4 0 .6-.1.9-.3.2-.2.3-.5.3-.8 0-.6-.3-1.1-.8-1.6s-1.2-.8-2-1c-.1 0-.1-.1-.1-.2 0-.2.1-.3.2-.4.1-.1.3-.2.5-.2.6 0 1.3.3 1.9 1 .1.1.2.2.4.2.2-.1.3-.2.3-.4M-15.543-161.246c.5.1.9.3 1.3.6s.6.6.6.9c0 .1 0 .2-.1.3-.1.1-.1.1-.2.1-.3 0-.6-.2-.9-.6-.4-.4-.6-.8-.7-1.3m3.2-.8c0-.3-.3-.7-.8-1.2-.6-.5-1.2-.7-1.9-.7-.5 0-1 .2-1.3.5-.3.3-.5.8-.5 1.4 0 .9.3 1.7.9 2.5.6.8 1.3 1.2 2 1.2.4 0 .6-.1.9-.3.2-.2.3-.5.3-.8 0-.6-.3-1.1-.8-1.6s-1.2-.8-2-1c-.1 0-.1-.1-.1-.2 0-.2.1-.3.2-.4.1-.1.3-.2.5-.2.6 0 1.3.3 1.9 1 .1.1.2.2.4.2.2-.1.3-.2.3-.4"/></g></g></svg><svg viewBox="-1 -1 46 88" width="46" height="88" id="slideshow-next" y="55.3"><path fill="#FFF" d="M.1 1l1-1L44 42.9l-.1.1.1.1L1.1 86l-1-1 42.1-42z"/></svg><svg viewBox="-1 -1 46 88" width="46" height="88" id="slideshow-prev" x="46" y="55.3"><path fill="#FFF" d="M44 1l-1-1L.1 42.9l.1.1-.1.1L43 86l1-1L2 43z"/></svg></svg>